<?xml version="1.0" encoding="UTF-8" standalone="no"?>
<!DOCTYPE svg PUBLIC "-//W3C//DTD SVG 1.0//EN"
"http://www.w3.org/TR/2001/REC-SVG-20010904/DTD/svg10.dtd">
<svg xmlns="http://www.w3.org/2000/svg" xmlns:xlink="http://www.w3.org/1999/xlink" width="1000" height="1000">

  <!-- Built by Dave Hawthorne; based on logo in the PDF version of the operations checklist -->
  <rect x="0" y="0" width="1000" height="1000"
     style="fill:white; fill-opacity:1; stroke:none"/>

  <g style="fill:#e31836;fill-opacity:1; fill-rule:evenodd; stroke:none">


      <!-- "CFA" text (done badly) -->
      <path
         d="m 410.48854,841.76359 -3.11601,13.49736 3.11601,0 0,-13.49736 z
         m 0,-174.46667 0,25.95649 -71.68755,0 c 1.03859,-18.68868 -17.13798,-38.94451 -35.84376,-39.46365 -46.74976,-1.03828 -68.05221,59.20035 -70.64888,91.9055 -2.07732,27.52366 10.9158,54.00905 42.6049,54.00905 24.92797,0 42.5951,-17.14106 51.94308,-39.98275 l 76.88088,0 c -8.30933,32.19582 -19.22511,52.96099 -42.5951,71.14032 -23.37977,18.16952 -54.54956,27.52365 -87.79665,27.00452 -37.92111,-0.52891 -69.61021,-9.87326 -89.34485,-31.67668 -20.26379,-21.29411 -27.01512,-46.74125 -23.89913,-84.64748 1.55796,-18.68867 5.71267,-36.34886 13.51247,-53.99925 7.78998,-17.14109 17.65731,-32.71497 30.1213,-46.21234 14.03179,-14.02628 29.61177,-24.928 47.27888,-32.71493 17.65733,-7.26781 36.88243,-10.91152 58.17509,-10.91152 44.68223,0 89.35466,24.928 101.29932,69.59272 z
         m 0,25.95649 0,-25.95649 c 2.07732,8.30608 3.11599,17.13128 3.11599,25.95649 l -3.11599,0 z
         m 204.15662,-88.80052 -147.52974,0 -56.62688,237.3107 0,13.49736 71.68754,0 20.78311,-89.82897 99.73152,0 11.95445,-53.48013 0,-12.98802 -97.66399,0 9.348,-31.15756 88.31599,0 0,-63.35338 z
         m -43.63377,250.80806 43.63377,-69.05399 0,69.05399 -43.63377,0 z
         m 43.63377,-187.45468 33.24711,0 9.86732,-63.35338 -43.11443,0 0,63.35338 z
         m 0,44.14558 2.59667,-12.98802 -2.59667,0 0,12.98802 z
         m 0,74.25511 113.76331,-181.75407 0.51938,0 0,122.55372 -22.86046,34.27233 22.86046,0.51922 0,56.59489 -54.54956,0.51922 -28.04398,36.34884 -31.6891,0 0,-69.054 z
         m 114.28264,-181.75407 64.9362,0 49.34643,250.80806 -76.88087,0 -10.38666,-37.38711 -27.0151,0.51906 0,-56.59488 22.3411,0.51906 -9.87712,-55.03752 -12.46398,19.72692 0,-122.55372" />

      <!-- bounding box -->
      <path
         d="M35,35 H965 V965 H35 V35 M70,70 H930 V930 H70 V70" />

      <!-- checker squares -->
      <rect x="164" y="144" width="133" height="133"/>
      <rect x="430" y="144" width="133" height="133"/>
      <rect x="696" y="144" width="133" height="133"/>

      <rect x="297" y="277" width="133" height="133"/>
      <rect x="563" y="277" width="133" height="133"/>

      <rect x="164" y="410" width="133" height="133"/>
      <rect x="430" y="410" width="133" height="133"/>
      <rect x="696" y="410" width="133" height="133"/>
  </g>
</svg>
